<svg xmlns="http://www.w3.org/2000/svg" viewBox="0 0 322.63 322.63"><defs><style>.cls-1{fill:#ffca2e;}</style></defs><g id="Capa_2" data-name="Capa 2"><g id="Capa_1-2" data-name="Capa 1"><path class="cls-1" d="M322.63,290.37a32.26,32.26,0,0,1-32.27,32.26H193.58a32.26,32.26,0,0,1-32.27-32.26V193.58a32.26,32.26,0,0,1,32.27-32.27h96.78a32.26,32.26,0,0,1,32.27,32.27ZM209.71,80.65H112.92a32.26,32.26,0,0,0-32.26,32.27v96.79A32.26,32.26,0,0,0,112.92,242h24.2V193.58a56.52,56.52,0,0,1,56.46-56.47H242V112.92a32.26,32.26,0,0,0-32.26-32.27ZM32.26,161.31h24.2V112.92a56.54,56.54,0,0,1,56.46-56.46h48.39V32.26A32.26,32.26,0,0,0,129.05,0H32.26A32.26,32.26,0,0,0,0,32.26v96.79a32.26,32.26,0,0,0,32.26,32.26Z"/></g></g></svg>