<svg xmlns="http://www.w3.org/2000/svg" viewBox="0 0 201.6 344.3"><defs><style>.cls-1{fill:#ffca2e;}</style></defs><g id="Capa_2" data-name="Capa 2"><g id="Capa_1-2" data-name="Capa 1"><path class="cls-1" d="M201.6,250.22v64.43A29.86,29.86,0,0,1,172,344.3H29.65A29.86,29.86,0,0,1,0,314.65v-285A29.86,29.86,0,0,1,29.65,0H171.56A29.86,29.86,0,0,1,201.2,29.65V250.22Zm-19.76-22.93V29.65A9.79,9.79,0,0,0,172,19.76H29.65a9.79,9.79,0,0,0-9.89,9.89V227.29ZM124.12,289V285.8a21.93,21.93,0,0,0-21.74-21.74H99.22A21.93,21.93,0,0,0,77.48,285.8V289A21.93,21.93,0,0,0,99.22,310.7h3.16A21.93,21.93,0,0,0,124.12,289Z"/><path class="cls-1" d="M158.91,87.75V176.7c0,1.18-.4,2.37-.4,3.55a11.86,11.86,0,0,1-11.46,8.31H52.58a12.38,12.38,0,0,1-11.47-8.31,11,11,0,0,1-.39-3.55V87.75A11.88,11.88,0,0,1,52.58,75.9h94.47c6.33-.4,11.86,5.13,11.86,11.85Zm-11.47,77.48V109.1c-9.09,7.11-17.78,14.23-26.88,21Zm0-71.94V87.75a.85.85,0,0,0-.79-.79H52.57a.85.85,0,0,0-.79.79v5.53l47.83,38,7.12-5.93c7.9-5.93,15.41-12.25,23.32-18.18,5.93-4.75,11.86-9.49,17.39-13.84Zm-4.74,84.2-30.44-40.32-8.3,6.72c-2.77,2-5.93,2-8.3,0l-8.31-6.33L56.92,177.88ZM51.78,165.23l26.49-35.18c-8.7-6.72-17.79-13.83-26.49-21Z"/><path class="cls-1" d="M112.26,285.8V289a9.78,9.78,0,0,1-9.88,9.88H99.22A9.78,9.78,0,0,1,89.34,289V285.8a9.78,9.78,0,0,1,9.88-9.89h3.16A9.78,9.78,0,0,1,112.26,285.8Z"/></g></g></svg>