<?xml version="1.0" encoding="utf-8"?>
<!-- Generator: Adobe Illustrator 25.4.1, SVG Export Plug-In . SVG Version: 6.00 Build 0)  -->
<svg version="1.1" id="Capa_1" xmlns="http://www.w3.org/2000/svg" xmlns:xlink="http://www.w3.org/1999/xlink" x="0px" y="0px"
	 viewBox="0 0 700 700" style="enable-background:new 0 0 700 700;" xml:space="preserve">
<g>
	<path d="M575.7,317c1.7-11.8,2.8-24.6,2.8-37c0-12.9-1.1-26.3-3.4-38.6h-53.8c-4.5-20.2-12.3-39.2-23.5-56.6l38.1-38.1
		c-14.6-20.7-33-38.6-53.2-53.2l-37.5,38.1c-16.8-10.6-35.8-19-56.6-23.5V54.3C376.3,52.1,363.4,51,350,51c-12.3,0-24.6,1.1-37,2.8
		v53.8c-20.7,4.5-39.8,12.3-57.1,23l-38.1-38.1c-20.7,14.6-38.6,32.5-53.8,53.2l38.1,38.1c-11.2,17.4-19.6,36.4-24.1,57.7l-53.8,0
		c-2.2,12.3-3.4,25.2-3.4,38.6c0,12.3,1.1,25.2,2.8,37h53.8c4.5,20.7,12.9,40.3,24.1,58.2l-38.1,38.1c14.6,20.7,33,38.6,53.2,53.2
		l38.1-38.1c17.4,11.2,37,19.6,58.2,24.1v53.8c11.8,1.7,24.1,2.8,37,2.8c13.4,0,26.3-1.1,38.6-3.4v-53.8
		c20.7-4.5,40.3-12.9,57.1-24.1l38.1,38.1c20.7-15.1,38.6-33,53.2-53.8L499,374.1c10.6-17.4,19-36.4,23-57.1L575.7,317z M350,356.7
		c-42.6,0-76.7-34.7-76.7-76.7s34.2-76.7,76.7-76.7s76.7,34.7,76.7,76.7S392.6,356.7,350,356.7z"/>
</g>
</svg>
