<svg xmlns="http://www.w3.org/2000/svg" viewBox="0 0 314.83 314.93"><defs><style>.cls-1{fill:#ffca2e;}</style></defs><g id="Capa_2" data-name="Capa 2"><g id="Capa_1-2" data-name="Capa 1"><path class="cls-1" d="M247.37,0h22.49V269.85H247.37Z"/><path class="cls-1" d="M0,0H22.49V269.85H0Z"/><path class="cls-1" d="M269.85,247.37v22.48H0V247.37Z"/><path class="cls-1" d="M269.87,67.61V90.22H0V67.61Z"/><path class="cls-1" d="M292.34,67.46h22.49V314.82H292.34Z"/><path class="cls-1" d="M314.83,292.34v22.49H67.46V292.34Z"/><path class="cls-1" d="M269.85,0V22.49H0V0Z"/><path class="cls-1" d="M281.1,67.46h33.73V90.08H281.1Z"/><path class="cls-1" d="M67.46,314.93V281.19H90.07v33.74Z"/><path class="cls-1" d="M56.23,45A11.25,11.25,0,1,1,45,33.73,11.25,11.25,0,0,1,56.23,45"/><path class="cls-1" d="M90,45A11.24,11.24,0,1,1,78.71,33.73,11.24,11.24,0,0,1,90,45"/><path class="cls-1" d="M123.68,45a11.24,11.24,0,1,1-11.24-11.25A11.24,11.24,0,0,1,123.68,45"/></g></g></svg>